<?xml version="1.0" encoding="utf-8"?>
<!-- Generator: Adobe Illustrator 17.0.0, SVG Export Plug-In . SVG Version: 6.00 Build 0)  -->
<!DOCTYPE svg PUBLIC "-//W3C//DTD SVG 1.1//EN" "http://www.w3.org/Graphics/SVG/1.1/DTD/svg11.dtd">
<svg version="1.1"
	 id="svg2203" sodipodi:version="0.32" sodipodi:docname="闂傚倸鍊搁崐鎼佸磹閹间礁纾归柟闂寸绾惧綊鏌熼梻瀵哥痪鎯х秺閺岀喖姊荤€靛摜鐥幆褏绉洪柡宀€鍠栧鑽も偓闈涙憸閻ュ箚瑜庣拹锟犳煃瑜庨崵鈧柣搴㈣壘闂傜棯閹勭瑜版帗鐓欓柣鎴灻悘鈺呮煕婵犲嫬浠辨慨濠冩そ瀹曞礋濞堟⒑缂佹﹢鏁冮悾鐑藉箣閿曗偓缁犳盯鏌ｅΔ鈧悧蹇涘储閸楃偐鏀介柣鎰级缂備胶绮敋闁伙綁鏀辩€靛ジ寮堕幋鐘垫澑缂備胶鍋撳畷妯何涢崟绠掗梻浣瑰缁诲倸螞濡ゅ懏鍊跺┑鐘叉处閻撴洘鎱ㄥΟ鍝勭疄闂備浇閸戠晫寰婃總绋跨闁绘垼濮ら埛鎴︽煟閻旂闁伙絾鐓曢柕濞垮劤缁夋椽鏌涢埡鍐ㄤ槐妤犵偛閹晜绂嶆ィ鍐╃叆婵犻潧妫涚粻鎶藉箹閺夋埊宸ラ柍瑙勫灴閹晠宕瑰В鍕節閸ㄥ攭闂佽桨绀侀崯瀛樹繆閼搁潧绶炲┑鐘插閺嬪啴姊绘担鑺ョ珶閸℃ɑ娅犳俊銈呮噹閻ゅ墽绱掔紒妯肩畺缂佺粯绻堝畷鎺戦悿渚€姊绘担濮愨偓鈧柛瀣尭闇夐柣妯荤叀閹繝宕橀悡鍐级閻愭潙闂備礁鎼Λ搴ㄥ垂婵犳碍鍎夌€规洘鍨块獮姗€宕滄担鐚寸闯闂備胶閺堟嚌妤ｅ啫鐒甸柛蹇旓耿楠炲﹤螖閸涙疂闂佹悶鍔屾导搴ㄦ⒒閸屾艾鈧悂鎮ф繝鍕煓闁规崘濮规煡鏌涢埄鍐噮缁炬儳銈搁幃妤呮晲閸曢梻浣虹帛閹稿爼宕愬Δ鍐╅柟鐑橀崑鎰版煠婢跺箍鍔戝娲传閸曞姽缂傚倸绉崇欢姘舵偘瀹曞爼鍩℃担铏圭摌闂佽崵濮村ú锔剧矈閹剧哗闁兼亽鍎崇粻楣冩煕濞嗗繑鏅堕悽鍛婄厱闁冲搫鍟禒杈ㄩ悙鏌ュ极閸岀偞鍤嶉柕澶涘瑜般劑姊婚崒娆戦柟娴嬧偓瓒佹椽寮界粻娲倵閿濆洨妲囩紓浣稿⒔婢ф褰滈梺绋块幑鍥嵁鎼淬劍鍤嶉柕澹啫绠ラ梻鍌欒兌闂佸湱鎳撳ú鎮板浠嬪Ω閿斿墽肖闂備礁鎲￠幐鍡涘礋鏉╂﹢姊婚崒娆掑厡缂佺濠电姵鑹剧粻鏌ユ煕閵夈劍鎲伴梻浣瑰缁诲倿鏌涚€ｅ闁哄本绋戦埢搴ょ疀閺囩姷骞撳┑鐐村灟閸ㄦ椽鍩涢幋鐘电＜閻庯絽浠村Δ鐘靛仦閸旀洜鈧厜鍋撻柍褏闂佺У閳锋帒霉閿濆懏鍟為柛鐔哄仱閺屾盯寮埀鎮ч弴鐐茬カ婵犵鏀绘俊鐐扮矙瀵宕ㄧ€涙ê鈧兘鏌熺紒妯烘诞闁哄本绋戣灒闁稿繐鍚嬪В鍫濃攽閿曘儱娴犲绠犳繝闈涚痪褔鏌涢妸銉ュ婵" sodipodi:docbase="D:\SVG\闂傚倸鍊搁崐鎼佸磹閹间礁纾归柟闂寸绾惧綊鏌熼梻瀵哥痪鎯х秺閺岀喖姊荤€靛摜鐥幆褏绉洪柡宀€鍠栧鑽も偓闈涙憸閻ュ箚瑜忕粔娲煛瀹€鈧崰鏍ч懡銈傚亾闂堟稒鎲搁柣銉ョ鐟滃酣宕甸埀姊虹拠鎻掑毐缂佸弶鍎抽悾鐑藉箮閼恒儮鎷虹紓鍌欑劍閿曘垽寮婚弴銏犲耿婵℃閻熴劑姊绘担鐟扮紒璇插€块獮濠傞崱娆戝骄闂佸搫娲ㄩ崰宥囨崲閸℃稒鐓忛柛绻冮幖鎰板疮閹间焦鈷戠紒瀣健瀹曟垿濡舵径濠勭暫閻熸粍妫冮獮鍐煛閸涙闁诲孩纰嶇喊宥囨崲濞戙垹绾ч柟瀵稿仧缁♀偓闂佹眹鍨藉褎绂掑鍕箚闁荤啿鏅涢悾宄扳攽鐎ｅ祮闂侀潧绻掓慨鐑芥⒒娴ｅ憡鍟炵紒瀣灴閹椽濡搁埡浣哄幈闂佺鎻梽鍕煕閹烘鐓曢柛鐘虫崌婵℃挳骞掗弮鍌滐紲闂佺粯蓱瑜板啴寮抽柆宥嗙厓閻熸瑥瀚悘瀵糕偓闈涘婵炵厧绻橀崺锟犲礃閸斿綊姊绘担鍛婅础闁稿簺鍊濋弻娑㈠Χ閸涙闂佸搫鑻粔鐟扮暦瀹曠喎鈻撻崼鏇熲拺闁圭娴烽埊鏇犵磼鐠囨彃鏆熼柟骞垮灩閳藉鈻庨幇肖闂備礁鎲￠幐鍡涘礃绾捐棄霉閿濆洤鍔嬮柛锝勫嵆閹鎲撮崟妯堝┑鐐村絻娴滄鈹戦悙鍙夐柟绋块幃锟犲即閻旇櫣闂佺懓閸庢垿宕楅弻锟犲焵缁绘繂閸樿鲸绻濋悽闈浶㈤柛鐔稿弿鐎广儱閻" inkscape:version="0.45.1" inkscape:output_extension="org.inkscape.output.svg.inkscape" xmlns:dc="http://purl.org/dc/elements/1.1/" xmlns:rdf="http://www.w3.org/1999/02/22-rdf-syntax-ns#" xmlns:svg="http://www.w3.org/2000/svg" xmlns:cc="http://web.resource.org/cc/" xmlns:sodipodi="http://sodipodi.sourceforge.net/DTD/sodipodi-0.dtd" xmlns:inkscape="http://www.inkscape.org/namespaces/inkscape"
	 xmlns="http://www.w3.org/2000/svg" xmlns:xlink="http://www.w3.org/1999/xlink" x="0px" y="0px" width="430px" height="100px"
	 viewBox="0 0 430 100" enable-background="new 0 0 430 100" xml:space="preserve">
<sodipodi:namedview  inkscape:pageshadow="2" inkscape:current-layer="layer1" inkscape:window-x="-4" inkscape:pageopacity="0.0" inkscape:guide-bbox="true" inkscape:document-units="px" inkscape:window-height="968" inkscape:window-width="1280" inkscape:window-y="-4" objecttolerance="10" bordercolor="#666666" pagecolor="#ffffff" inkscape:zoom="0.74999999" showguides="true" inkscape:cy="646.08493" borderopacity="1.0" id="base" inkscape:cx="126.79097" gridtolerance="10000" guidetolerance="10">
	<sodipodi:guide  position="1116" orientation="vertical" id="guide22942"></sodipodi:guide>
	<sodipodi:guide  position="1147" orientation="vertical" id="guide22944"></sodipodi:guide>
</sodipodi:namedview>
<path fill="#64A800" d="M100.019,87.391c0,0.616,0,1.232,0,1.846c-0.398,2.238-0.652,4.452-2.284,6.331
	c-2.184,2.512-4.632,4.264-8.073,4.288c-0.25,0.002-0.514-0.044-0.722,0.154c-0.514,0-1.026,0-1.538,0
	c-2.872-0.256-5.745-0.256-8.617,0c-13.437,0-26.876,0-40.316,0c-0.322-0.228-0.69-0.152-1.042-0.152
	c-7.923-0.004-15.845-0.004-23.768,0c-0.352,0-0.72-0.076-1.042,0.152c-0.616,0-1.232,0-1.846,0
	c-2.918-0.266-5.494-1.184-7.611-3.378C1.134,94.53,0.254,92.044,0,89.239c0-0.718,0-1.436,0-2.154
	c0.292-0.528,0.146-1.102,0.146-1.652c0.014-4.798,0.012-9.595,0.002-14.391C0.146,70.542,0.28,70.018,0,69.544
	c0-0.104,0-0.206,0-0.308c0.802-1.458,2.23-2.218,3.52-3.118c3.526-2.46,6.897-5.134,10.501-7.481
	c1.768-1.15,2.47-0.944,3.098,1.116c1.754,5.741,5.188,10.211,10.273,13.317c8.581,5.242,19.24,4.42,26.924-2.022
	c5.557-4.656,8.385-10.683,8.361-17.88c-0.026-7.693-3.282-13.919-9.387-18.628c-0.366-0.282-0.754-0.538-1.08-0.86
	c-0.476-0.474-0.628-1.042-0.36-1.688c0.602-1.45,3.23-2.526,4.674-1.884c5.272,2.344,9.533,5.893,12.831,10.637
	c2.576,3.704,4.638,7.727,7.215,11.427c3.364,4.832,7.597,8.685,12.821,11.435c2.816,1.482,5.727,2.744,8.735,3.774
	c0.75,0.258,1.402,0.61,1.89,1.24c0,0.104,0,0.206,0,0.308c-0.268,0.424-0.148,0.896-0.148,1.346c-0.01,5.258-0.01,10.515,0,15.773
	C99.871,86.497,99.751,86.969,100.019,87.391z"/>
<path fill="#3A8BEE" d="M100.019,11.072c0,0.514,0,1.026,0,1.54c-0.298,0.584-0.146,1.208-0.146,1.812
	c-0.01,16.54-0.008,33.079-0.008,49.613c-0.076,1.35-0.996,1.096-1.774,0.838c-3.316-1.098-6.427-2.652-9.479-4.344
	c-6.319-3.504-10.209-9.159-13.659-15.225c-2.286-4.018-4.898-7.781-8.239-11.031c-3.98-3.876-8.633-6.509-13.937-8.059
	c-2.898-0.848-5.811-1.652-8.667-2.636c-5.613-1.934-9.983-5.488-13.423-10.283c-2.428-3.382-4.534-6.943-6.305-10.703
	c-0.38-0.808-0.946-1.71,0.274-2.37c0.562-0.14,1.128-0.07,1.69-0.07C46.092,0.15,65.84,0.152,85.585,0.142
	c0.604,0,1.23,0.152,1.814-0.146c0.514,0,1.026,0,1.538,0c2.29,0.368,4.568,0.536,6.517,2.192c2.624,2.232,4.436,4.75,4.41,8.317
	C99.863,10.708,99.867,10.908,100.019,11.072z"/>
<path fill="#64A800" d="M19.698-0.007c0.104,0,0.206,0,0.308,0c0.704,0.46,1.184,1.07,1.528,1.858
	c3.022,6.919,6.903,13.261,12.511,18.428c2.874,2.648,6.189,4.518,9.915,5.675c0.684,0.212,1.38,0.406,2.03,0.712
	c1.264,0.594,1.342,1.366,0.31,2.34c-1.274,1.202-2.766,1.38-4.424,1.168c-5.873-0.746-11.191,0.842-15.939,4.212
	c-4.82,3.422-7.947,8.089-9.167,13.911c-0.31,1.476-1.026,2.508-2.192,3.358c-3.892,2.836-7.809,5.635-11.749,8.397
	c-0.738,0.518-1.62,1.554-2.596,0.214c-0.142-0.56-0.07-1.128-0.072-1.688c-0.004-14.769,0-29.539-0.01-44.308
	c0-0.554,0.144-1.13-0.148-1.66c0-0.616,0-1.232,0-1.846c0.22-3.12,1.376-5.761,3.714-7.925c2.108-1.954,4.626-2.636,7.365-2.85
	c0.514,0,1.026,0,1.538,0C14.977,0.249,17.338,0.249,19.698-0.007z"/>
<path fill="#FEFEFE" d="M0.626,60.643c4.966-3.262,9.709-6.839,14.535-10.297c0.592-0.424,0.664-1.002,0.782-1.588
	c2.494-12.421,13.723-20.746,26.202-19.224c2.052,0.25,3.254-0.66,4.618-1.754c-0.36-0.538-0.93-0.53-1.384-0.644
	c-6.599-1.652-11.707-5.507-15.927-10.689c-4.046-4.968-7.147-10.483-9.447-16.453c1.334,0,2.668,0,4,0
	c0.178,0.168,0.484,0.264,0.336,0.61c2.592,6.201,6.005,11.881,10.739,16.692c3.728,3.786,8.529,5.563,13.505,6.963
	c1.036,0.292,2.058,0.634,3.1,0.894c9.877,2.462,16.934,8.603,22.228,17.038c0.872,1.388,1.778,2.764,2.524,4.22
	c4.45,8.695,11.631,14.123,20.65,17.376c0.864,0.312,1.744,0.574,2.616,0.86c0.144,0.05,0.248,0.148,0.316,0.284
	c0,1.232,0,2.462,0,3.692c-10.459-2.926-19.252-8.231-25.14-17.662c-1.952-3.126-3.794-6.327-5.827-9.399
	c-3.242-4.904-7.579-8.571-12.979-10.943c-0.778-0.342-3.994,1.098-4.108,1.87c-0.076,0.526,0.482,0.594,0.792,0.808
	c5.392,3.714,8.801,8.751,10.193,15.159c2.912,13.419-6.911,27.062-20.542,28.511c-12.309,1.308-22.846-5.857-26.142-17.772
	c-0.092-0.33-0.228-0.648-0.38-1.08c-4.874,3.482-9.657,6.911-14.455,10.317c-0.442,0.314-0.798,0.814-1.428,0.806
	c0-2.668,0-5.334,0-8.001C0.208,61.037,0.242,60.655,0.626,60.643z"/>
<path fill="#2E85ED" d="M24.34,0.604c-0.112-0.204-0.224-0.406-0.336-0.61c21.132,0,42.264,0,63.396,0
	c-0.642,0.472-1.384,0.3-2.086,0.3C65.792,0.302,46.272,0.3,26.751,0.304C25.938,0.305,25.104,0.189,24.34,0.604z"/>
<path fill="#3085EE" d="M100.019,64.927c-0.106-0.094-0.21-0.188-0.316-0.284c0.004-16.65,0.004-33.299,0.016-49.951
	c0-0.702-0.172-1.444,0.302-2.086C100.019,30.05,100.019,47.488,100.019,64.927z"/>
<path fill="#5FA500" d="M0.626,60.643C0.418,60.841,0.208,61.037,0,61.235C0,45.028,0,28.82,0,12.611
	c0.472,0.642,0.3,1.384,0.302,2.088C0.312,29.21,0.308,43.722,0.31,58.233C0.31,59.049,0.222,59.879,0.626,60.643z"/>
<path fill="#5EA401" d="M12.617,100.011c0.488-0.388,1.068-0.306,1.626-0.306c7.535-0.004,15.067-0.004,22.602,0
	c0.558,0,1.138-0.082,1.626,0.306C29.853,100.011,21.236,100.011,12.617,100.011z"/>
<path fill="#5CA400" d="M100.019,87.391c-0.314-0.39-0.308-0.854-0.308-1.318c0-5.276,0-10.555,0-15.831
	c0-0.464-0.01-0.928,0.308-1.316C100.019,75.082,100.019,81.237,100.019,87.391z"/>
<path fill="#5EA500" d="M0.002,69.544c0.316,0.39,0.308,0.854,0.308,1.318c0,4.97,0,9.939,0,14.907c0,0.464,0.008,0.928-0.308,1.318
	C0.002,81.237,0.002,75.39,0.002,69.544z"/>
<path fill="#5DA401" d="M78.783,100.011c2.872-0.508,5.745-0.508,8.617,0C84.53,100.011,81.655,100.011,78.783,100.011z"/>
<path fill="#59A300" d="M19.698-0.007c-2.36,0.494-4.718,0.494-7.079,0C14.977-0.007,17.338-0.007,19.698-0.007z"/>
<path fill="#FEFEFE" d="M80.969,90.828c-0.034,1.934-0.686,2.926-1.868,3.532c-1.146,0.588-2.286,0.442-3.336-0.292
	c-0.292-0.204-0.538-0.474-0.79-0.726c-6.271-6.263-12.525-12.539-18.828-18.77c-0.772-0.764-0.816-1.14,0.066-1.834
	c1.04-0.818,2.018-1.764,2.824-2.808c0.732-0.948,1.11-0.712,1.814-0.002c6.207,6.253,12.447,12.471,18.688,18.694
	C80.323,89.398,80.991,90.212,80.969,90.828z"/>
<path fill="#3A8BEE" d="M57.885,53.294C57.849,63.409,49.48,71.698,39.411,71.59c-10.209-0.112-18.314-8.321-18.258-18.494
	c0.057-10.159,8.308-18.331,18.467-18.291C49.747,34.847,57.919,43.119,57.885,53.294z"/>
<path fill="#FDFEFE" d="M40.762,40.363c-0.076,0.93-0.644,1.396-1.516,1.41c-3.128,0.056-5.763,1.234-8.029,3.352
	c-0.648,0.604-1.42,0.66-2.046-0.034c-0.624-0.688-0.478-1.448,0.142-2.06c2.712-2.686,6.011-4.032,9.807-4.126
	C40.02,38.887,40.708,39.321,40.762,40.363z"/>
<path fill="#F7FAFD" d="M45.718,65.149c-0.116,0.848-0.52,1.366-1.376,1.378c-0.93,0.014-1.44-0.534-1.43-1.406
	c0.01-0.796,0.538-1.344,1.352-1.36C45.164,63.747,45.612,64.329,45.718,65.149z"/>
<g enable-background="new    ">
	<path fill="#FFFFFF" d="M151.776,48.008V25.056c0-2.116,0.106-4.776,0.318-7.985h-0.196c-0.488,2.426-0.88,4.046-1.172,4.858
		l-9.327,26.078h-6.423l-9.449-25.834c-0.228-0.618-0.628-2.32-1.196-5.104h-0.22c0.212,3.174,0.318,6.357,0.318,9.547v21.39h-7.276
		V10.187h11.721l8.155,22.856c0.684,1.89,1.148,3.662,1.392,5.322h0.172c0.504-2.066,1.026-3.858,1.564-5.372l8.181-22.806h11.403
		V48.01C159.737,48.008,151.776,48.008,151.776,48.008z"/>
	<path fill="#FFFFFF" d="M168.453,22.638c1.222-0.684,2.854-1.236,4.896-1.66c2.044-0.424,3.788-0.636,5.238-0.636
		c7.553,0,11.329,3.784,11.329,11.355v16.311h-7.497v-3.932h-0.098c-1.84,3.062-4.534,4.59-8.083,4.59
		c-2.556,0-4.604-0.73-6.141-2.186c-1.54-1.458-2.308-3.438-2.308-5.947c0-5.176,3.084-8.189,9.255-9.035l7.423-1.002
		c0-3.142-1.636-4.712-4.908-4.712c-3.224,0-6.261,0.978-9.107,2.93L168.453,22.638L168.453,22.638z M177.364,35.777
		c-2.85,0.376-4.272,1.66-4.272,3.858c0,1.01,0.346,1.824,1.038,2.442c0.692,0.62,1.624,0.928,2.796,0.928
		c1.612,0,2.938-0.57,3.98-1.71c1.042-1.14,1.564-2.556,1.564-4.248v-1.93L177.364,35.777z"/>
	<path fill="#FFFFFF" d="M204.567,44.762v15.675h-7.887V21.001h7.887v4.126h0.098c2.066-3.19,4.988-4.786,8.767-4.786
		c3.434,0,6.121,1.2,8.059,3.602s2.906,5.671,2.906,9.805c0,4.51-1.124,8.123-3.37,10.841c-2.246,2.72-5.192,4.078-8.839,4.078
		c-3.306,0-5.813-1.302-7.521-3.906L204.567,44.762L204.567,44.762z M204.445,36.069c0,1.922,0.522,3.492,1.564,4.712
		c1.042,1.222,2.394,1.832,4.054,1.832c1.97,0,3.504-0.766,4.604-2.296c1.098-1.53,1.648-3.694,1.648-6.495
		c0-4.948-1.93-7.423-5.787-7.423c-1.792,0-3.252,0.684-4.384,2.052s-1.696,3.126-1.696,5.274L204.445,36.069L204.445,36.069z"/>
	<path fill="#FFFFFF" d="M229.033,38.485c3.044,2.522,6.503,3.784,10.377,3.784c2.198,0,3.85-0.378,4.956-1.136
		c1.106-0.756,1.66-1.73,1.66-2.918c0-1.026-0.44-1.994-1.318-2.906c-0.88-0.912-3.198-2.148-6.959-3.712
		c-5.909-2.506-8.863-6.153-8.863-10.939c0-3.516,1.34-6.247,4.016-8.193c2.678-1.946,6.223-2.918,10.635-2.918
		c3.694,0,6.797,0.48,9.303,1.44v7.569c-2.54-1.726-5.51-2.588-8.913-2.588c-1.986,0-3.574,0.362-4.762,1.086
		c-1.188,0.726-1.782,1.698-1.782,2.918c0,0.978,0.406,1.876,1.222,2.698c0.814,0.822,2.824,1.934,6.031,3.334
		c3.76,1.612,6.345,3.314,7.753,5.104c1.408,1.792,2.112,3.924,2.112,6.397c0,3.63-1.286,6.397-3.858,8.303
		c-2.572,1.904-6.227,2.856-10.963,2.856c-4.33,0-7.879-0.7-10.647-2.1L229.033,38.485L229.033,38.485z"/>
	<path fill="#FFFFFF" d="M267.954,44.762v15.675h-7.887V21.001h7.887v4.126h0.098c2.066-3.19,4.988-4.786,8.767-4.786
		c3.434,0,6.121,1.2,8.059,3.602s2.906,5.671,2.906,9.805c0,4.51-1.124,8.123-3.37,10.841c-2.246,2.72-5.192,4.078-8.839,4.078
		c-3.306,0-5.813-1.302-7.521-3.906L267.954,44.762L267.954,44.762z M267.832,36.069c0,1.922,0.522,3.492,1.564,4.712
		c1.042,1.222,2.394,1.832,4.054,1.832c1.97,0,3.504-0.766,4.604-2.296c1.098-1.53,1.648-3.694,1.648-6.495
		c0-4.948-1.93-7.423-5.787-7.423c-1.792,0-3.252,0.684-4.384,2.052s-1.696,3.126-1.696,5.274L267.832,36.069L267.832,36.069z"/>
	<path fill="#FFFFFF" d="M291.763,34.627c0-4.444,1.332-7.937,3.992-10.475c2.662-2.54,6.239-3.81,10.731-3.81
		c4.346,0,7.797,1.25,10.353,3.748c2.556,2.5,3.834,5.857,3.834,10.073c0,4.428-1.312,7.953-3.932,10.573
		c-2.622,2.622-6.171,3.932-10.647,3.932c-4.396,0-7.883-1.258-10.463-3.772C293.053,42.381,291.763,38.957,291.763,34.627z
		 M299.747,34.531c0,5.388,2.198,8.083,6.593,8.083c4.216,0,6.325-2.768,6.325-8.303c0-5.274-2.124-7.911-6.373-7.911
		c-2.068,0-3.674,0.708-4.822,2.124C300.321,29.94,299.747,31.942,299.747,34.531z"/>
	<path fill="#FFFFFF" d="M342.135,47.69c-1.188,0.65-2.988,0.978-5.396,0.978c-5.731,0-8.595-3.012-8.595-9.035V26.888H323.7v-5.885
		h4.444V15.07l7.839-2.246v8.181h6.153v5.885h-6.153v11.377c0,2.882,1.14,4.322,3.418,4.322c0.88,0,1.79-0.26,2.734-0.782
		L342.135,47.69L342.135,47.69z"/>
	<path fill="#FFFFFF" d="M362.843,47.69c-1.188,0.65-2.988,0.978-5.396,0.978c-5.731,0-8.595-3.012-8.595-9.035V26.888h-4.444
		v-5.885h4.444V15.07l7.839-2.246v8.181h6.153v5.885h-6.153v11.377c0,2.882,1.14,4.322,3.418,4.322c0.88,0,1.79-0.26,2.734-0.782
		V47.69L362.843,47.69z"/>
	<path fill="#FFFFFF" d="M391.412,36.729h-17.776c0.276,4.184,2.8,6.275,7.569,6.275c2.98,0,5.607-0.732,7.887-2.198v5.787
		c-2.458,1.384-5.683,2.076-9.669,2.076c-4.298,0-7.639-1.212-10.023-3.638c-2.386-2.426-3.578-5.803-3.578-10.133
		c0-4.314,1.27-7.817,3.81-10.513c2.54-2.694,5.731-4.04,9.571-4.04c3.824,0,6.817,1.16,8.973,3.48
		c2.158,2.318,3.236,5.507,3.236,9.559L391.412,36.729L391.412,36.729z M384.061,31.794c0-4.036-1.636-6.057-4.908-6.057
		c-1.352,0-2.548,0.554-3.59,1.66c-1.042,1.108-1.694,2.572-1.954,4.396L384.061,31.794L384.061,31.794z"/>
	<path fill="#FFFFFF" d="M413.754,28.158c-0.962-0.554-2.124-0.83-3.492-0.83c-1.792,0-3.21,0.684-4.262,2.052
		c-1.05,1.368-1.574,3.248-1.574,5.641V48.01h-7.887V21.001h7.887v5.079h0.098c1.302-3.694,3.67-5.543,7.105-5.543
		c0.928,0,1.636,0.106,2.124,0.318L413.754,28.158L413.754,28.158z"/>
</g>
<g enable-background="new    ">
	<path fill="#FFFFFF" d="M130.644,86.347h-2.682l-2.92-5.04c-0.584-1.008-1.118-1.694-1.602-2.058
		c-0.486-0.364-1.066-0.546-1.74-0.546h-1.638v7.643h-2.274V68.19h5.364c1.712,0,3.052,0.426,4.022,1.278
		c0.97,0.852,1.454,2.044,1.454,3.574c0,2.516-1.304,4.148-3.91,4.898v0.058c0.486,0.212,0.904,0.512,1.256,0.902
		s0.81,1.06,1.37,2.004L130.644,86.347z M120.065,70.244v6.411h2.682c1.038,0,1.88-0.314,2.528-0.938s0.972-1.446,0.972-2.462
		c0-0.946-0.296-1.684-0.886-2.216c-0.59-0.532-1.452-0.798-2.58-0.798L120.065,70.244L120.065,70.244z"/>
	<path fill="#FFFFFF" d="M143.077,86.347h-2.24v-2.04h-0.046c-0.842,1.564-2.132,2.344-3.876,2.344
		c-2.978,0-4.466-1.836-4.466-5.509v-7.759h2.204v7.421c0,2.634,0.978,3.95,2.932,3.95c0.97,0,1.754-0.37,2.352-1.108
		s0.898-1.67,0.898-2.796v-7.467h2.24L143.077,86.347L143.077,86.347z"/>
	<path fill="#FFFFFF" d="M157.668,86.347h-2.216v-7.373c0-2.664-0.944-3.996-2.83-3.996c-0.978,0-1.78,0.376-2.41,1.126
		c-0.628,0.75-0.944,1.7-0.944,2.848v7.397h-2.228V73.384h2.228v2.146h0.046c0.948-1.634,2.322-2.45,4.126-2.45
		c1.38,0,2.428,0.456,3.148,1.366c0.72,0.91,1.08,2.236,1.08,3.98V86.347L157.668,86.347z"/>
	<path fill="#FFFFFF" d="M172.01,86.347h-2.216v-7.373c0-2.664-0.944-3.996-2.83-3.996c-0.978,0-1.78,0.376-2.41,1.126
		c-0.628,0.75-0.944,1.7-0.944,2.848v7.397h-2.228V73.384h2.228v2.146h0.046c0.948-1.634,2.322-2.45,4.126-2.45
		c1.38,0,2.428,0.456,3.148,1.366c0.72,0.91,1.08,2.236,1.08,3.98V86.347L172.01,86.347z"/>
	<path fill="#FFFFFF" d="M175.454,68.814c0-0.406,0.136-0.748,0.404-1.026c0.27-0.278,0.6-0.416,0.994-0.416
		c0.402,0,0.742,0.138,1.018,0.41c0.276,0.274,0.416,0.618,0.416,1.032c0,0.406-0.14,0.744-0.416,1.014s-0.616,0.404-1.018,0.404
		c-0.402,0-0.736-0.136-1-0.404C175.586,69.56,175.454,69.22,175.454,68.814z M175.716,86.347V73.384h2.228v12.961
		C177.942,86.347,175.716,86.347,175.716,86.347z"/>
	<path fill="#FFFFFF" d="M192.546,86.347h-2.216v-7.373c0-2.664-0.944-3.996-2.83-3.996c-0.978,0-1.78,0.376-2.41,1.126
		c-0.628,0.75-0.944,1.7-0.944,2.848v7.397h-2.228V73.384h2.228v2.146h0.046c0.948-1.634,2.322-2.45,4.126-2.45
		c1.38,0,2.428,0.456,3.148,1.366c0.72,0.91,1.08,2.236,1.08,3.98V86.347L192.546,86.347z"/>
	<path fill="#FFFFFF" d="M207.171,85.257c0,4.798-2.258,7.197-6.773,7.197c-1.56,0-2.918-0.302-4.068-0.902v-2.216
		c1.402,0.806,2.746,1.208,4.034,1.208c3.052,0,4.58-1.656,4.58-4.97v-1.372h-0.046c-0.954,1.634-2.378,2.45-4.272,2.45
		c-1.576,0-2.838-0.582-3.784-1.746s-1.42-2.708-1.42-4.63c0-2.212,0.524-3.964,1.568-5.256c1.046-1.294,2.44-1.94,4.182-1.94
		c1.676,0,2.918,0.688,3.728,2.064h0.046v-1.758h2.228L207.171,85.257L207.171,85.257z M204.945,78.637
		c0.008-1-0.318-1.86-0.978-2.578c-0.66-0.72-1.47-1.078-2.432-1.078c-1.212,0-2.156,0.46-2.83,1.378s-1.012,2.178-1.012,3.78
		c0,1.376,0.326,2.488,0.978,3.34s1.516,1.278,2.592,1.278c1.084,0,1.97-0.406,2.66-1.22s1.032-1.844,1.024-3.094L204.945,78.637
		L204.945,78.637z"/>
	<path fill="#FFFFFF" d="M228.265,73.384l-5.705,14.919c-1.062,2.766-2.558,4.148-4.488,4.148c-0.554,0-1.028-0.064-1.42-0.188
		v-2.016c0.432,0.172,0.848,0.258,1.25,0.258c1.008,0,1.762-0.61,2.262-1.828l0.966-2.356l-4.932-12.939h2.466l3.284,9.739
		l0.272,1.066h0.058c0.046-0.242,0.136-0.59,0.272-1.044l3.432-9.763h2.282v0.004C228.264,73.384,228.265,73.384,228.265,73.384z"/>
	<path fill="#FFFFFF" d="M229.391,80.007c0-2.142,0.58-3.83,1.74-5.068s2.73-1.858,4.716-1.858c1.886,0,3.366,0.596,4.438,1.788
		s1.608,2.838,1.608,4.94c0,2.048-0.572,3.7-1.716,4.958s-2.678,1.888-4.602,1.888c-1.88,0-3.378-0.61-4.5-1.828
		C229.949,83.605,229.391,81.999,229.391,80.007z M231.663,79.939c0,1.492,0.366,2.668,1.098,3.528c0.732,0.86,1.714,1.29,2.95,1.29
		c1.274,0,2.244-0.42,2.91-1.26c0.666-0.84,1-2.046,1-3.616c0-1.578-0.334-2.79-1-3.634s-1.638-1.266-2.91-1.266
		c-1.25,0-2.238,0.442-2.96,1.324C232.025,77.186,231.663,78.397,231.663,79.939z"/>
	<path fill="#FFFFFF" d="M255.403,86.347h-2.24v-2.04h-0.046c-0.842,1.564-2.132,2.344-3.876,2.344
		c-2.978,0-4.466-1.836-4.466-5.509v-7.759h2.204v7.421c0,2.634,0.978,3.95,2.932,3.95c0.97,0,1.754-0.37,2.352-1.108
		s0.898-1.67,0.898-2.796v-7.467h2.24L255.403,86.347L255.403,86.347L255.403,86.347z"/>
	<path fill="#FFFFFF" d="M266.108,75.66c-0.372-0.274-0.882-0.41-1.534-0.41c-0.864,0-1.576,0.416-2.136,1.248
		s-0.842,1.928-0.842,3.288v6.565h-2.228V73.384h2.228v2.638h0.046c0.636-1.906,1.736-2.86,3.296-2.86
		c0.508,0,0.898,0.058,1.17,0.176V75.66L266.108,75.66z"/>
	<path fill="#FFFFFF" d="M286.054,86.347h-2.228v-2.156h-0.046c-0.916,1.642-2.342,2.462-4.272,2.462
		c-1.592,0-2.856-0.584-3.796-1.752s-1.41-2.744-1.41-4.73c0-2.142,0.53-3.858,1.592-5.15c1.062-1.294,2.446-1.94,4.16-1.94
		c1.712,0,2.954,0.688,3.728,2.064h0.046v-7.981h2.228L286.054,86.347L286.054,86.347z M283.836,78.637
		c0-1.04-0.332-1.908-0.994-2.608c-0.662-0.7-1.48-1.05-2.448-1.05c-1.182,0-2.114,0.456-2.796,1.366
		c-0.682,0.91-1.024,2.15-1.024,3.722c0,1.446,0.328,2.588,0.984,3.428c0.656,0.84,1.528,1.26,2.62,1.26
		c1.076,0,1.956-0.412,2.636-1.236s1.024-1.85,1.024-3.076L283.836,78.637L283.836,78.637z"/>
	<path fill="#FFFFFF" d="M290.326,74.288c1.25-0.806,2.694-1.208,4.33-1.208c3.03,0,4.546,1.642,4.546,4.922v8.345h-2.204v-2.002
		h-0.058c-0.872,1.54-2.156,2.31-3.852,2.31c-1.22,0-2.19-0.34-2.91-1.02s-1.08-1.598-1.08-2.754c0-2.422,1.39-3.832,4.17-4.23
		l3.728-0.54c0-2.118-0.848-3.176-2.546-3.176c-1.508,0-2.884,0.524-4.126,1.57L290.326,74.288L290.326,74.288z M294.055,80.253
		c-1.032,0.142-1.74,0.406-2.13,0.798s-0.586,0.938-0.586,1.642c0,0.618,0.212,1.122,0.636,1.512
		c0.424,0.392,0.986,0.586,1.682,0.586c0.97,0,1.77-0.352,2.398-1.056c0.63-0.704,0.944-1.586,0.944-2.648v-1.242L294.055,80.253z"
		/>
	<path fill="#FFFFFF" d="M308.928,86.219c-0.484,0.274-1.14,0.41-1.966,0.41c-2.25,0-3.374-1.286-3.374-3.856v-7.489h-2.16v-1.898
		h2.16v-3.118l2.216-0.728v3.844h3.126v1.898h-3.126v7.079c0,0.852,0.14,1.462,0.422,1.828c0.282,0.366,0.748,0.552,1.398,0.552
		c0.5,0,0.936-0.146,1.308-0.434L308.928,86.219L308.928,86.219z"/>
	<path fill="#FFFFFF" d="M311.862,74.288c1.25-0.806,2.694-1.208,4.33-1.208c3.03,0,4.546,1.642,4.546,4.922v8.345h-2.204v-2.002
		h-0.058c-0.872,1.54-2.156,2.31-3.852,2.31c-1.22,0-2.19-0.34-2.91-1.02s-1.08-1.598-1.08-2.754c0-2.422,1.39-3.832,4.17-4.23
		l3.728-0.54c0-2.118-0.848-3.176-2.546-3.176c-1.508,0-2.884,0.524-4.126,1.57L311.862,74.288L311.862,74.288z M315.589,80.253
		c-1.032,0.142-1.74,0.406-2.13,0.798s-0.586,0.938-0.586,1.642c0,0.618,0.212,1.122,0.636,1.512
		c0.424,0.39,0.986,0.586,1.682,0.586c0.97,0,1.77-0.352,2.398-1.056c0.63-0.704,0.944-1.586,0.944-2.648v-1.242L315.589,80.253z"/>
	<path fill="#FFFFFF" d="M330.476,80.007c0-2.142,0.58-3.83,1.74-5.068s2.73-1.858,4.716-1.858c1.886,0,3.366,0.596,4.438,1.788
		s1.608,2.838,1.608,4.94c0,2.048-0.572,3.7-1.716,4.958s-2.678,1.888-4.602,1.888c-1.88,0-3.378-0.61-4.5-1.828
		C331.036,83.605,330.476,81.999,330.476,80.007z M332.748,79.939c0,1.492,0.366,2.668,1.098,3.528s1.714,1.29,2.95,1.29
		c1.274,0,2.244-0.42,2.91-1.26c0.666-0.84,1-2.046,1-3.616c0-1.578-0.334-2.79-1-3.634s-1.638-1.266-2.91-1.266
		c-1.25,0-2.238,0.442-2.96,1.324C333.112,77.186,332.748,78.397,332.748,79.939z"/>
	<path fill="#FFFFFF" d="M356.738,86.347h-2.216v-7.373c0-2.664-0.942-3.996-2.83-3.996c-0.978,0-1.78,0.376-2.41,1.126
		s-0.944,1.7-0.944,2.848v7.397h-2.228V73.384h2.228v2.146h0.046c0.948-1.634,2.322-2.45,4.126-2.45c1.38,0,2.428,0.456,3.148,1.366
		c0.72,0.91,1.08,2.236,1.08,3.98V86.347L356.738,86.347z"/>
	<path fill="#FFFFFF" d="M385.433,86.347h-2.228v-7.443c0-1.406-0.212-2.412-0.636-3.018c-0.424-0.606-1.122-0.908-2.09-0.908
		c-0.818,0-1.518,0.396-2.102,1.184c-0.584,0.79-0.876,1.724-0.876,2.802v7.385h-2.228v-7.677c0-2.462-0.92-3.692-2.762-3.692
		c-0.848,0-1.552,0.376-2.108,1.126c-0.558,0.75-0.836,1.708-0.836,2.872v7.373h-2.228V73.384h2.228v2.052h0.046
		c0.894-1.57,2.202-2.356,3.92-2.356c0.842,0,1.584,0.238,2.228,0.716c0.644,0.478,1.092,1.122,1.342,1.934
		c0.932-1.766,2.326-2.648,4.182-2.648c2.766,0,4.148,1.758,4.148,5.274L385.433,86.347L385.433,86.347z"/>
	<path fill="#FFFFFF" d="M389.445,74.288c1.25-0.806,2.694-1.208,4.33-1.208c3.03,0,4.546,1.642,4.546,4.922v8.345h-2.204v-2.002
		h-0.058c-0.872,1.54-2.156,2.31-3.852,2.31c-1.22,0-2.19-0.34-2.91-1.02c-0.718-0.68-1.08-1.598-1.08-2.754
		c0-2.422,1.39-3.832,4.17-4.23l3.728-0.54c0-2.118-0.848-3.176-2.546-3.176c-1.508,0-2.884,0.524-4.126,1.57L389.445,74.288
		L389.445,74.288z M393.174,80.253c-1.032,0.142-1.74,0.406-2.13,0.798s-0.586,0.938-0.586,1.642c0,0.618,0.212,1.122,0.636,1.512
		c0.424,0.39,0.986,0.586,1.682,0.586c0.97,0,1.77-0.352,2.398-1.056c0.628-0.704,0.944-1.586,0.944-2.648v-1.242L393.174,80.253z"
		/>
	<path fill="#FFFFFF" d="M404.243,84.521v7.795h-2.228V73.384h2.228v2.238h0.046c0.986-1.696,2.424-2.544,4.318-2.544
		c1.606,0,2.866,0.58,3.778,1.74c0.914,1.16,1.37,2.718,1.37,4.67c0,2.156-0.518,3.89-1.552,5.198
		c-1.036,1.308-2.426,1.964-4.176,1.964c-1.614,0-2.86-0.712-3.738-2.134h-0.044L404.243,84.521L404.243,84.521z M404.231,81.003
		c0,1.056,0.33,1.944,0.99,2.666s1.484,1.084,2.478,1.084c1.182,0,2.106-0.47,2.772-1.406c0.666-0.938,1-2.234,1-3.892
		c0-1.398-0.31-2.494-0.932-3.288s-1.47-1.19-2.546-1.19c-1.1,0-2,0.402-2.704,1.208s-1.058,1.836-1.058,3.094L404.231,81.003
		L404.231,81.003z"/>
</g>
</svg>
